<?xml version="1.0" encoding="UTF-8" standalone="no"?>
<!-- Created with Inkscape (http://www.inkscape.org/) -->

<svg
   width="112.65138mm"
   height="110.07249mm"
   viewBox="0 0 112.65138 110.07249"
   version="1.1"
   id="svg5"
   inkscape:version="1.1.1 (3bf5ae0d25, 2021-09-20)"
   sodipodi:docname="ScareBnB Logo [Horizontal Eaves].svg"
   xmlns:inkscape="http://www.inkscape.org/namespaces/inkscape"
   xmlns:sodipodi="http://sodipodi.sourceforge.net/DTD/sodipodi-0.dtd"
   xmlns="http://www.w3.org/2000/svg"
   xmlns:svg="http://www.w3.org/2000/svg">
  <sodipodi:namedview
     id="namedview7"
     pagecolor="#ffffff"
     bordercolor="#666666"
     borderopacity="1.0"
     inkscape:pageshadow="2"
     inkscape:pageopacity="0.0"
     inkscape:pagecheckerboard="0"
     inkscape:document-units="mm"
     showgrid="false"
     inkscape:zoom="1.0482005"
     inkscape:cx="0"
     inkscape:cy="203.68241"
     inkscape:window-width="1920"
     inkscape:window-height="1057"
     inkscape:window-x="-8"
     inkscape:window-y="0"
     inkscape:window-maximized="1"
     inkscape:current-layer="g12364">
    <sodipodi:guide
       position="0,110.07249"
       orientation="0,425.769"
       id="guide12328" />
    <sodipodi:guide
       position="112.65138,110.07249"
       orientation="416.022,0"
       id="guide12330" />
    <sodipodi:guide
       position="112.65138,0"
       orientation="0,-425.769"
       id="guide12332" />
    <sodipodi:guide
       position="0,0"
       orientation="-416.022,0"
       id="guide12334" />
  </sodipodi:namedview>
  <defs
     id="defs2" />
  <g
     inkscape:groupmode="layer"
     id="layer2"
     inkscape:label="Unused"
     style="display:none"
     transform="translate(-4.1232148,-4.1540342)">
    <path
       style="fill:none;stroke:#0f0f0f;stroke-width:3.3;stroke-linecap:butt;stroke-linejoin:round;stroke-miterlimit:4;stroke-dasharray:none;stroke-opacity:1"
       d="m 198.57342,96.829461 c 0,0 -4.97984,16.690269 -9.94645,25.605159 -4.27783,7.67852 -9.8081,12.33598 -9.8081,12.33598 0,0 -6.84098,5.88477 -5.12752,7.31266 1.71346,1.42788 7.71057,2.14182 11.1375,5.42595 3.42692,3.28414 5.28317,7.42501 5.28317,7.42501 0,0 1.14231,2.85576 8.7101,0.42836 7.56778,-2.4274 18.70528,6.71106 18.70528,6.71106 0,0 5.42596,5.14038 17.70577,0.85673 12.2798,-4.28365 9.8524,-5.56875 15.9923,-6.13991 6.1399,-0.57115 8.42452,0.99952 12.13702,0.28558 3.7125,-0.71394 3.56971,-5.56874 7.56779,-6.42548 3.99807,-0.85673 8.65921,0.5156 10.28077,-2.57019 2.50886,-4.77431 -5.58313,-9.37405 -10.5171,-16.99604 -3.97748,-7.22347 -7.04631,-11.60725 -12.04348,-33.551079 0,0 4.5745,3.382899 6.3919,2.1713 1.8174,-1.2116 3.83673,-3.18045 -3.28142,-11.71214 -7.11815,-8.53168 -12.21697,-14.5392 -12.21697,-14.5392 0,0 0.85822,-13.17615 -0.75725,-13.58002 -1.61546,-0.40387 -7.42105,-0.70677 -8.07734,-0.0505 -0.65628,0.65628 -0.80773,7.32008 -0.80773,7.32008 0,0 -8.22877,-8.73362 -11.15681,-9.18797 -2.92803,-0.45435 -7.11815,0.95918 -7.11815,0.95918 0,0 -28.05549,25.04891 -30.64339,28.77551 -2.58622,3.72419 -4.91581,6.21861 -2.7373,9.00293 3.38364,1.88976 3.10064,0.84934 8.43428,-0.87265 z"
       id="path869-0"
       sodipodi:nodetypes="cscsscscsssssccsscsscscsccc" />
    <path
       style="fill:none;stroke:#000000;stroke-width:1.45426;stroke-linecap:butt;stroke-linejoin:round;stroke-miterlimit:4;stroke-dasharray:none;stroke-opacity:1"
       d="m 164.87659,39.006566 c 11.10363,-0.87798 23.79497,-0.60685 30.77091,0.21348 1.31316,0.31517 1.39713,0.58587 1.49928,1.01406 0.0847,0.60618 -0.0925,1.24499 -1.14231,1.99252 -2.99806,1.84 -7.2375,3.23534 -13.27932,3.98505 -1.27709,0.30383 -3.08935,0.11867 -4.92621,-0.0889 -7.00663,-1.50716 -7.41484,-1.79004 -13.15438,-4.12737 -0.91109,-0.531 -1.62325,-0.90847 -1.71347,-1.6812 0.0716,-0.24346 -0.27022,-0.791 1.9455,-1.30759 z"
       id="path3657-6"
       sodipodi:nodetypes="ccccccccc" />
    <path
       style="fill:none;stroke:#000000;stroke-width:0.884856;stroke-linecap:butt;stroke-linejoin:miter;stroke-miterlimit:4;stroke-dasharray:none;stroke-opacity:1"
       d="m 167.25044,39.335136 c 6.13385,2.8757 19.50887,3.71948 25.73762,0 -6.13832,-1.43861 -19.06538,-1.2104 -25.73762,0 z"
       id="path5744-1"
       sodipodi:nodetypes="ccc" />
    <path
       style="fill:none;stroke:#000000;stroke-width:0.734192;stroke-linecap:butt;stroke-linejoin:miter;stroke-miterlimit:4;stroke-dasharray:none;stroke-opacity:1"
       d="m 171.27597,44.689956 c 4.36202,1.52599 12.24379,2.1053 17.72637,0.55302 -3.0949,1.01633 -11.2034,0.87975 -17.72637,-0.55302 z"
       id="path5744-0-7"
       sodipodi:nodetypes="ccc" />
  </g>
  <g
     inkscape:label="Main Layer"
     inkscape:groupmode="layer"
     id="layer1"
     transform="translate(-4.1232148,-4.1540342)"
     style="display:none">
    <path
       style="fill:none;stroke:#0f0f0f;stroke-width:3.3;stroke-linecap:butt;stroke-linejoin:round;stroke-miterlimit:4;stroke-dasharray:none;stroke-opacity:1"
       d="m 29.146903,43.765296 c 0,0 0.999519,20.704331 -4.140866,28.129331 -5.140384,7.425 -15.9923061,13.85048 -15.9923061,13.85048 0,0 -4.569232,2.85577 -2.85577,4.28366 1.713462,1.42788 7.7105761,2.14182 11.1375001,5.42595 3.426922,3.28414 5.283172,7.425013 5.283172,7.425013 0,0 1.142308,2.85576 8.710097,0.42836 7.567789,-2.4274 18.705287,6.71106 18.705287,6.71106 0,0 5.425959,5.14038 17.705769,0.85673 12.279804,-4.28365 9.852404,-5.56875 15.992304,-6.13991 6.1399,-0.57115 8.42452,0.99952 12.13702,0.28558 3.7125,-0.71394 3.56971,-5.568743 7.56779,-6.425483 3.99807,-0.85673 8.65921,0.5156 10.28077,-2.57019 2.50886,-4.77431 2.99432,-2.60407 -7.425,-12.13702 -10.43852,-9.55051 -15.42116,-16.42067 -15.13558,-38.410101 0,0 4.5745,3.38291 6.3919,2.1713 1.8174,-1.2116 3.83673,-3.18045 -3.28142,-11.71214 -7.11815,-8.53168 -12.21697,-14.5392 -12.21697,-14.5392 0,0 0.85822,-13.1761498 -0.75725,-13.5800198 -1.61546,-0.40387 -7.42105,-0.70677 -8.07734,-0.0505 -0.65628,0.65628 -0.80773,7.3200798 -0.80773,7.3200798 0,0 -8.228774,-8.7336198 -11.156814,-9.1879698 -2.92803,-0.45435 -7.118149,0.95919 -7.118149,0.95919 0,0 -28.05549,25.0488998 -30.64339,28.7754998 -2.586228,3.72419 -4.915816,6.21861 -2.7373,9.00293 3.383636,2.29923 3.100636,1.10528 8.434276,-0.87265 z"
       id="path869"
       sodipodi:nodetypes="cscsscscsssssscsscsscscscc"
       inkscape:export-filename="C:\Users\Paul\path869.png"
       inkscape:export-xdpi="250"
       inkscape:export-ydpi="250" />
    <path
       style="fill:#000000;fill-opacity:1;stroke:#000000;stroke-width:1;stroke-linecap:butt;stroke-linejoin:round;stroke-miterlimit:4;stroke-dasharray:none;stroke-opacity:1"
       d="m 47.171931,46.617257 c -0.54895,0.10083 -4.071923,-10.2653 2.92138,-10.87483 6.2946,-0.54863 4.70306,10.82892 4.48182,10.79731 -1.35617,-1.22693 -5.74322,-1.84759 -7.4032,0.0775 z"
       id="path2798"
       sodipodi:nodetypes="cscc"
       inkscape:export-filename="C:\Users\Paul\path869.png"
       inkscape:export-xdpi="250"
       inkscape:export-ydpi="250" />
    <path
       style="fill:#000000;fill-opacity:1;stroke:#000000;stroke-width:1;stroke-linecap:butt;stroke-linejoin:round;stroke-miterlimit:4;stroke-dasharray:none;stroke-opacity:1"
       d="m 73.2713,46.481568 c 0.54894,0.10082 4.07192,-10.2653 -2.92138,-10.87483 -6.29459,-0.54863 -4.70305,10.82891 -4.48181,10.79731 1.35617,-1.22693 5.74321,-1.84759 7.40319,0.0775 z"
       id="path2798-9"
       sodipodi:nodetypes="cscc"
       inkscape:export-filename="C:\Users\Paul\path869.png"
       inkscape:export-xdpi="250"
       inkscape:export-ydpi="250" />
    <path
       style="fill:none;stroke:#000000;stroke-width:2.06;stroke-linecap:butt;stroke-linejoin:round;stroke-miterlimit:4;stroke-dasharray:none;stroke-opacity:1"
       d="m 45.468098,57.467743 c 11.10363,-1.761705 23.794965,-1.217665 30.770902,0.428364 1.31316,0.6324 1.39713,1.17556 1.49928,2.03474 0.0847,1.21633 -0.0925,2.49813 -1.14231,3.99807 -8.713632,7.37475 -22.474042,6.62074 -31.359902,-0.46406 -0.911084,-1.06546 -1.623244,-1.82288 -1.713464,-3.37338 0.07162,-0.48852 -0.270227,-1.58718 1.945494,-2.623734 z"
       id="path3657"
       sodipodi:nodetypes="ccccccc"
       inkscape:export-filename="C:\Users\Paul\path869.png"
       inkscape:export-xdpi="250"
       inkscape:export-ydpi="250" />
    <path
       style="fill:none;stroke:#000000;stroke-width:0.99564;stroke-linecap:butt;stroke-linejoin:miter;stroke-miterlimit:4;stroke-dasharray:none;stroke-opacity:1"
       d="m 48.818818,66.072367 c 5.62175,3.97252 17.88012,5.13812 23.588832,0 -5.625832,-1.9873 -17.473642,-1.67205 -23.588832,0 z"
       id="path5744"
       sodipodi:nodetypes="ccc"
       inkscape:export-filename="C:\Users\Paul\path869.png"
       inkscape:export-xdpi="250"
       inkscape:export-ydpi="250" />
  </g>
  <g
     inkscape:label="Horizontal Eaves"
     inkscape:groupmode="layer"
     id="g12364"
     transform="translate(-4.1232148,-4.1540342)">
    <path
       style="fill:none;stroke:#0f0f0f;stroke-width:3.3;stroke-linecap:butt;stroke-linejoin:round;stroke-miterlimit:4;stroke-dasharray:none;stroke-opacity:1"
       d="m 29.146903,46.44258 c 0,0 0.999519,18.027047 -4.140866,25.452047 -5.140384,7.425 -15.9923061,13.85048 -15.9923061,13.85048 0,0 -4.569232,2.85577 -2.85577,4.28366 1.713462,1.42788 7.7105761,2.14182 11.1375001,5.42595 3.426922,3.28414 5.283172,7.425013 5.283172,7.425013 0,0 1.142308,2.85576 8.710097,0.42836 7.567789,-2.4274 18.705287,6.71106 18.705287,6.71106 0,0 5.425959,5.14038 17.705769,0.85673 12.279804,-4.28365 9.852404,-5.56875 15.992304,-6.13991 6.1399,-0.57115 8.42452,0.99952 12.13702,0.28558 3.7125,-0.71394 3.56971,-5.568743 7.56779,-6.425483 3.99807,-0.85673 8.65921,0.5156 10.28077,-2.57019 2.50886,-4.77431 2.99432,-2.60407 -7.425,-12.13702 -10.43852,-9.55051 -15.42116,-16.42067 -15.13558,-38.410101 0,0 2.996894,0.260858 4.120149,0.08886 C 98.102774,45.128838 103.31401,45.211781 97.130362,37.2 90.341478,28.404054 82.0106,21.398716 82.0106,21.398716 c 0,0 0.85822,-13.1761498 -0.75725,-13.5800198 -1.61546,-0.40387 -7.42105,-0.70677 -8.07734,-0.0505 -0.65628,0.65628 -0.612075,6.3690328 -0.612075,6.3690328 0,0 -8.424429,-7.7825728 -11.352469,-8.2369228 -2.92803,-0.45435 -7.118149,0.95919 -7.118149,0.95919 0,0 -28.05549,25.0488998 -30.64339,28.7754998 -2.586228,3.72419 -5.894859,6.667995 -3.274614,9.326107 1.559832,1.835342 2.787018,0.961197 8.97159,1.481477 z"
       id="path12354"
       sodipodi:nodetypes="cscsscscsssssscsscsscscscc"
       inkscape:export-filename="C:\Users\Paul\path869.png"
       inkscape:export-xdpi="250"
       inkscape:export-ydpi="250" />
    <path
       style="fill:#000000;fill-opacity:1;stroke:#000000;stroke-width:1;stroke-linecap:butt;stroke-linejoin:round;stroke-miterlimit:4;stroke-dasharray:none;stroke-opacity:1"
       d="m 47.171931,46.617257 c -0.54895,0.10083 -4.071923,-10.2653 2.92138,-10.87483 6.2946,-0.54863 4.70306,10.82892 4.48182,10.79731 -1.35617,-1.22693 -5.74322,-1.84759 -7.4032,0.0775 z"
       id="path12356"
       sodipodi:nodetypes="cscc"
       inkscape:export-filename="C:\Users\Paul\path869.png"
       inkscape:export-xdpi="250"
       inkscape:export-ydpi="250" />
    <path
       style="fill:#000000;fill-opacity:1;stroke:#000000;stroke-width:1;stroke-linecap:butt;stroke-linejoin:round;stroke-miterlimit:4;stroke-dasharray:none;stroke-opacity:1"
       d="m 73.2713,46.481568 c 0.54894,0.10082 4.07192,-10.2653 -2.92138,-10.87483 -6.29459,-0.54863 -4.70305,10.82891 -4.48181,10.79731 1.35617,-1.22693 5.74321,-1.84759 7.40319,0.0775 z"
       id="path12358"
       sodipodi:nodetypes="cscc"
       inkscape:export-filename="C:\Users\Paul\path869.png"
       inkscape:export-xdpi="250"
       inkscape:export-ydpi="250" />
    <path
       style="fill:none;stroke:#000000;stroke-width:2.06;stroke-linecap:butt;stroke-linejoin:round;stroke-miterlimit:4;stroke-dasharray:none;stroke-opacity:1"
       d="m 45.468098,57.467743 c 11.10363,-1.761705 23.794965,-1.217665 30.770902,0.428364 1.31316,0.6324 1.39713,1.17556 1.49928,2.03474 0.0847,1.21633 -0.0925,2.49813 -1.14231,3.99807 -8.713632,7.37475 -22.474042,6.62074 -31.359902,-0.46406 -0.911084,-1.06546 -1.623244,-1.82288 -1.713464,-3.37338 0.07162,-0.48852 -0.270227,-1.58718 1.945494,-2.623734 z"
       id="path12360"
       sodipodi:nodetypes="ccccccc"
       inkscape:export-filename="C:\Users\Paul\path869.png"
       inkscape:export-xdpi="250"
       inkscape:export-ydpi="250" />
    <path
       style="fill:none;stroke:#000000;stroke-width:0.99564;stroke-linecap:butt;stroke-linejoin:miter;stroke-miterlimit:4;stroke-dasharray:none;stroke-opacity:1"
       d="m 48.818818,66.072367 c 5.62175,3.97252 17.88012,5.13812 23.588832,0 -5.625832,-1.9873 -17.473642,-1.67205 -23.588832,0 z"
       id="path12362"
       sodipodi:nodetypes="ccc"
       inkscape:export-filename="C:\Users\Paul\path869.png"
       inkscape:export-xdpi="250"
       inkscape:export-ydpi="250" />
  </g>
</svg>
